Coordinates
version=1
nRows=26
nColumns=24
inDegrees=yes

Units are S.I. units (second, meters, Newtons, ...)
Angles are in degrees.

endheader
time	pelvis_tilt	pelvis_list	pelvis_rotation	pelvis_tx	pelvis_ty	pelvis_tz	hip_flexion_r	hip_adduction_r	hip_rotation_r	knee_angle_r	ankle_angle_r	subtalar_angle_r	mtp_angle_r	hip_flexion_l	hip_adduction_l	hip_rotation_l	knee_angle_l	ankle_angle_l	subtalar_angle_l	mtp_angle_l	lumbar_extension	lumbar_bending	lumbar_rotation
      0.96883333	      0.78428290	     -2.54525520	      2.37111252	     -0.29949367	      0.99575580	      0.30248822	      6.84656143	      7.63902542	     -4.99084381	    -15.75001473	      8.64554296	     -6.16708958	      2.58616985	     19.63412181	     -2.37956180	      1.22423825	    -73.75871304	     -5.84793870	    -11.34401722	      3.62717901	     -1.05155890	      4.95846688	      3.06850994
      0.97300000	      0.76579387	     -2.47510402	      2.19542075	     -0.29479450	      0.99603681	      0.30282339	      6.41266378	      7.58965349	     -4.92337562	    -15.47816602	      8.72851992	     -6.00863162	      2.60137687	     20.28890373	     -2.31392863	      1.11798936	    -73.65042051	     -5.30309670	    -11.59596662	      3.55533016	     -1.08805914	      4.88988990	      3.12038471
      0.97716667	      0.84933172	     -2.39582514	      2.01332421	     -0.29005179	      0.99643157	      0.30317854	      5.86498328	      7.52000153	     -4.94229451	    -15.19807609	      8.80482422	     -5.51537301	      2.66090510	     20.80798375	     -2.26539435	      0.98374969	    -73.48599950	     -4.72986714	    -11.68274863	      3.24992384	     -1.24491949	      4.78408191	      3.47601057
      0.98133333	      0.84613414	     -2.31093433	      1.82266629	     -0.28538154	      0.99667265	      0.30349890	      5.43743376	      7.43624963	     -4.93355269	    -14.96507074	      8.90063158	     -5.07508693	      2.73648287	     21.41910172	     -2.18813527	      0.87021901	    -73.28809442	     -4.16558700	    -11.78501176	      2.91003768	     -1.32522657	      4.69092243	      3.71362125
      0.98550000	      0.88651198	     -2.22698232	      1.63928446	     -0.28067818	      0.99695828	      0.30382479	      4.95137992	      7.35464950	     -4.93049180	    -14.71025665	      8.98093677	     -4.70959950	      2.80759473	     21.96325735	     -2.12254854	      0.75232709	    -73.03654713	     -3.59989617	    -11.86704095	      2.63399451	     -1.43775412	      4.59044182	      3.89781554
      0.98966667	      0.89257098	     -2.13144123	      1.46823508	     -0.27602103	      0.99714706	      0.30406112	      4.54123308	      7.23548840	     -5.03217081	    -14.52898757	      9.07674460	     -4.20328632	      2.98369048	     22.54023315	     -2.01712443	      0.66708448	    -72.75041523	     -3.04067046	    -11.98110222	      2.01040797	     -1.53001224	      4.48259532	      4.15631861
      0.99383333	      0.90121701	     -2.08447011	      1.25597297	     -0.27133603	      0.99732562	      0.30445664	      4.08274434	      7.20493361	     -4.91935512	    -14.25013650	      9.14132085	     -3.98404231	      3.01804948	     23.09851900	     -2.01726025	      0.52728298	    -72.42688257	     -2.47770819	    -11.96166360	      1.92855156	     -1.59530967	      4.42092475	      4.21965669
      0.99800000	      0.90509401	     -2.02640606	      1.08629931	     -0.26664707	      0.99746205	      0.30473878	      3.63857523	      7.14154221	     -4.91906697	    -13.98663609	      9.21944214	     -3.60262154	      3.08221177	     23.65346060	     -1.97158197	      0.45344618	    -72.06350312	     -1.90441138	    -11.81686452	      1.77814082	     -1.66424759	      4.36072570	      4.46067519
      1.00216667	      0.93137452	     -1.96576482	      0.90110299	     -0.26197475	      0.99760531	      0.30502967	      3.18313127	      7.07159234	     -4.91989424	    -13.74715672	      9.29636643	     -3.20054882	      3.15925449	     24.16614810	     -1.93039555	      0.36039761	    -71.65213229	     -1.35131084	    -11.73023956	      1.61193842	     -1.76797075	      4.28824412	      4.66891834
      1.00633333	      0.93813118	     -1.90076382	      0.70967119	     -0.25730722	      0.99769187	      0.30531795	      2.75680018	      6.99470708	     -4.90812899	    -13.52251490	      9.37582621	     -2.82288672	      3.23559402	     24.68501281	     -1.88514992	      0.26656381	    -71.19816292	     -0.81198310	    -11.60869134	      1.46554874	     -1.84901258	      4.21622509	      4.85041556
      1.01050000	      0.94837177	     -1.84215765	      0.51355280	     -0.25263276	      0.99776147	      0.30561222	      2.32574259	      6.92342497	     -4.89069862	    -13.29280077	      9.44521486	     -2.46159291	      3.31017278	     25.18445547	     -1.85299642	      0.16730985	    -70.70293353	     -0.28897062	    -11.47177429	      1.33643595	     -1.92963649	      4.14267344	      5.02175983
      1.01466667	      0.92520906	     -1.75353103	      0.32380187	     -0.24797645	      0.99774742	      0.30583270	      1.96416528	      6.80010239	     -4.95560097	    -13.12991409	      9.53910697	     -1.88769966	      3.56748018	     25.70505138	     -1.76730878	      0.08251608	    -70.15813040	      0.16679081	    -11.39823604	      0.87957729	     -1.98590594	      4.04068162	      5.26300756
      1.01883333	      0.93755553	     -1.72768881	      0.14629636	     -0.24330816	      0.99774271	      0.30612525	      1.51851917	      6.77423886	     -4.87388695	    -12.87033487	      9.60731027	     -1.68956698	      3.62764255	     26.18446609	     -1.77066691	      0.01582678	    -69.60142504	      0.67614054	    -11.14773306	      0.79863371	     -2.06947422	      4.00407380	      5.35772435
      1.02300000	      0.91190118	     -1.68698077	     -0.05762535	     -0.23866511	      0.99766050	      0.30639953	      1.13773301	      6.72344886	     -4.77687165	    -12.65634951	      9.66864383	     -1.44580529	      3.67595040	     26.68444142	     -1.75687660	     -0.06862641	    -68.99585853	      1.13596011	    -10.96143694	      0.73997536	     -2.12047988	      3.96772731	      5.48477125
      1.02716667	      0.91864102	     -1.64682910	     -0.21663174	     -0.23397363	      0.99760129	      0.30663224	      0.71005791	      6.66918331	     -4.76362346	    -12.41983065	      9.75075047	     -1.11249229	      3.76001157	     27.13542101	     -1.72906043	     -0.11029929	    -68.34882849	      1.55019621	    -10.71304357	      0.63025265	     -2.19920564	      3.90865418	      5.71039464
      1.03133333	      0.88251673	     -1.60987534	     -0.42289115	     -0.22932631	      0.99744523	      0.30689973	      0.34972366	      6.61994617	     -4.65011475	    -12.22325186	      9.82422552	     -0.87485669	      3.80871372	     27.61502547	     -1.72258951	     -0.19144901	    -67.66440466	      1.94295718	    -10.52741102	      0.57561186	     -2.23398142	      3.87199553	      5.81632254
      1.03550000	      0.87731592	     -1.57165554	     -0.60008272	     -0.22464074	      0.99731700	      0.30713653	     -0.05643980	      6.56815839	     -4.57625417	    -12.00313694	      9.90635382	     -0.61834379	      3.86353607	     28.04279596	     -1.70581863	     -0.24692576	    -66.93710264	      2.31407959	    -10.28064053	      0.51364024	     -2.29905283	      3.82205784	      5.98059990
      1.03966667	      0.86465881	     -1.52912068	     -0.77651733	     -0.21996290	      0.99714378	      0.30736254	     -0.44674982	      6.51032165	     -4.49431017	    -11.79651224	      9.99273089	     -0.37839183	      3.91440755	     28.46269199	     -1.68280902	     -0.30141380	    -66.17057156	      2.64229320	    -10.06064174	      0.45807430	     -2.35858256	      3.76817274	      6.13003893
      1.04383333	      0.85074144	     -1.50810683	     -0.92567736	     -0.21527178	      0.99691822	      0.30755367	     -0.83700562	      6.47434968	     -4.45057751	    -11.58624790	     10.08796045	     -0.11060439	      3.99701215	     28.87609126	     -1.67007736	     -0.31750525	    -65.38089323	      2.95045154	     -9.81377712	      0.36067877	     -2.41233816	      3.73884708	      6.34311966
      1.04800000	      0.80997890	     -1.47864861	     -1.10832883	     -0.21059418	      0.99663698	      0.30777265	     -1.18649070	      6.43125551	     -4.32116497	    -11.40166750	     10.18069104	      0.06291498	      4.03932842	     29.29419469	     -1.66607758	     -0.37163915	    -64.54560090	      3.22239506	     -9.61009589	      0.31720824	     -2.43573792	      3.70093272	      6.43074150
      1.05216667	      0.77738108	     -1.44196196	     -1.27136191	     -0.20589663	      0.99635084	      0.30796350	     -1.54827000	      6.37899411	     -4.21416524	    -11.20948905	     10.28555405	      0.22928883	      4.07939303	     29.68281207	     -1.64494525	     -0.40575428	    -63.66566685	      3.47823839	     -9.38017296	      0.27736252	     -2.46705356	      3.65503733	      6.56031066
      1.05633333	      0.74984219	     -1.42163504	     -1.42203371	     -0.20119711	      0.99602187	      0.30813701	     -1.91500017	      6.34488695	     -4.10857746	    -11.01818667	     10.39844187	      0.38316900	      4.11734599	     30.05429783	     -1.63775148	     -0.42614742	    -62.76043880	      3.71716955	     -9.14919942	      0.24030411	     -2.50210209	      3.62769756	      6.69440349
      1.06050000	      0.71647991	     -1.39582859	     -1.56800693	     -0.19647861	      0.99567378	      0.30829947	     -2.27384341	      6.30450075	     -3.99656852	    -10.83186504	     10.51676503	      0.51064279	      4.15169673	     30.40804815	     -1.62306887	     -0.44308614	    -61.80892388	      3.93032967	     -8.93112541	      0.20635880	     -2.52791374	      3.59453044	      6.82562193
      1.06466667	      0.69619711	     -1.37387867	     -1.70469241	     -0.19174078	      0.99531637	      0.30844918	     -2.64897979	      6.26776907	     -3.88355163	    -10.64297612	     10.64316190	      0.61980220	      4.18493532	     30.72730721	     -1.60986412	     -0.45282181	    -60.82070487	      4.13153041	     -8.71073082	      0.17339549	     -2.56755278	      3.56344795	      6.95754602
      1.06883333	      0.65208185	     -1.35408815	     -1.83039871	     -0.18700920	      0.99487828	      0.30857219	     -2.99368251	      6.23381573	     -3.77074541	    -10.46211535	     10.78170680	      0.70555683	      4.21091744	     31.06034003	     -1.59308555	     -0.45172603	    -59.80406569	      4.31104946	     -8.51490521	      0.14878316	     -2.58402242	      3.53522890	      7.06245359
      1.07300000	      0.62361034	     -1.33931375	     -1.95282120	     -0.18225551	      0.99444562	      0.30869441	     -3.35221696	      6.20470058	     -3.64976649	    -10.29230597	     10.92808715	      0.76943396	      4.23714341	     31.34949524	     -1.58197080	     -0.44601620	    -58.74426111	      4.48711974	     -8.30539545	      0.12271752	     -2.60721232	      3.51317325	      7.18438663
